<svg width="36" height="33" viewBox="0 0 36 33" fill="none" xmlns="http://www.w3.org/2000/svg">
<path d="M18 32.75L15.4625 30.475C12.5167 27.8208 10.0813 25.5312 8.15625 23.6062C6.23125 21.6812 4.7 19.9531 3.5625 18.4219C2.425 16.8906 1.63021 15.4833 1.17813 14.2C0.726042 12.9166 0.5 11.6041 0.5 10.2625C0.5 7.52081 1.41875 5.23123 3.25625 3.39373C5.09375 1.55623 7.38333 0.637482 10.125 0.637482C11.6417 0.637482 13.0854 0.958315 14.4563 1.59998C15.8271 2.24165 17.0083 3.14582 18 4.31248C18.9917 3.14582 20.1729 2.24165 21.5438 1.59998C22.9146 0.958315 24.3583 0.637482 25.875 0.637482C28.6167 0.637482 30.9063 1.55623 32.7438 3.39373C34.5813 5.23123 35.5 7.52081 35.5 10.2625C35.5 11.6041 35.274 12.9166 34.8219 14.2C34.3698 15.4833 33.575 16.8906 32.4375 18.4219C31.3 19.9531 29.7687 21.6812 27.8438 23.6062C25.9188 25.5312 23.4833 27.8208 20.5375 30.475L18 32.75ZM18 28.025C20.8 25.5166 23.1042 23.3656 24.9125 21.5719C26.7208 19.7781 28.15 18.2177 29.2 16.8906C30.25 15.5635 30.9792 14.3823 31.3875 13.3469C31.7958 12.3114 32 11.2833 32 10.2625C32 8.51248 31.4167 7.05415 30.25 5.88748C29.0833 4.72081 27.625 4.13748 25.875 4.13748C24.5042 4.13748 23.2354 4.52394 22.0688 5.29686C20.9021 6.06977 20.1 7.05415 19.6625 8.24998H16.3375C15.9 7.05415 15.0979 6.06977 13.9313 5.29686C12.7646 4.52394 11.4958 4.13748 10.125 4.13748C8.375 4.13748 6.91667 4.72081 5.75 5.88748C4.58333 7.05415 4 8.51248 4 10.2625C4 11.2833 4.20417 12.3114 4.6125 13.3469C5.02083 14.3823 5.75 15.5635 6.8 16.8906C7.85 18.2177 9.27917 19.7781 11.0875 21.5719C12.8958 23.3656 15.2 25.5166 18 28.025Z" fill="white"/>
</svg>
