<svg width="54" height="53" viewBox="0 0 54 53" fill="none" xmlns="http://www.w3.org/2000/svg">
<mask id="mask0_104_23" style="mask-type:alpha" maskUnits="userSpaceOnUse" x="0" y="0" width="54" height="53">
<rect width="54" height="53" fill="#D9D9D9"/>
</mask>
<g mask="url(#mask0_104_23)">
<path d="M31.5 21.8625V18.1083C32.7375 17.5931 34.0031 17.2066 35.2969 16.949C36.5906 16.6913 37.95 16.5625 39.375 16.5625C40.35 16.5625 41.3062 16.6361 42.2437 16.7833C43.1812 16.9306 44.1 17.1146 45 17.3354V20.8688C44.1 20.5375 43.1906 20.2891 42.2719 20.1234C41.3531 19.9578 40.3875 19.875 39.375 19.875C37.95 19.875 36.5812 20.0498 35.2687 20.3995C33.9563 20.7491 32.7 21.2368 31.5 21.8625ZM31.5 34.0083V30.2542C32.7375 29.7389 34.0031 29.3524 35.2969 29.0948C36.5906 28.8372 37.95 28.7083 39.375 28.7083C40.35 28.7083 41.3062 28.782 42.2437 28.9292C43.1812 29.0764 44.1 29.2604 45 29.4813V33.0146C44.1 32.6833 43.1906 32.4349 42.2719 32.2693C41.3531 32.1037 40.3875 32.0208 39.375 32.0208C37.95 32.0208 36.5812 32.1865 35.2687 32.5177C33.9563 32.849 32.7 33.3458 31.5 34.0083ZM31.5 27.9354V24.1813C32.7375 23.666 34.0031 23.2795 35.2969 23.0219C36.5906 22.7642 37.95 22.6354 39.375 22.6354C40.35 22.6354 41.3062 22.709 42.2437 22.8563C43.1812 23.0035 44.1 23.1875 45 23.4083V26.9417C44.1 26.6104 43.1906 26.362 42.2719 26.1964C41.3531 26.0307 40.3875 25.9479 39.375 25.9479C37.95 25.9479 36.5812 26.1228 35.2687 26.4724C33.9563 26.8221 32.7 27.3097 31.5 27.9354ZM14.625 35.3333C16.3875 35.3333 18.1031 35.5266 19.7719 35.913C21.4406 36.2995 23.1 36.8792 24.75 37.6521V15.9C23.2125 15.0167 21.5813 14.3542 19.8563 13.9125C18.1313 13.4708 16.3875 13.25 14.625 13.25C13.275 13.25 11.9344 13.3788 10.6031 13.6365C9.27188 13.8941 7.9875 14.2806 6.75 14.7958V36.6583C8.0625 36.2167 9.36562 35.8854 10.6594 35.6646C11.9531 35.4438 13.275 35.3333 14.625 35.3333ZM29.25 37.6521C30.9 36.8792 32.5594 36.2995 34.2281 35.913C35.8969 35.5266 37.6125 35.3333 39.375 35.3333C40.725 35.3333 42.0469 35.4438 43.3406 35.6646C44.6344 35.8854 45.9375 36.2167 47.25 36.6583V14.7958C46.0125 14.2806 44.7281 13.8941 43.3969 13.6365C42.0656 13.3788 40.725 13.25 39.375 13.25C37.6125 13.25 35.8688 13.4708 34.1438 13.9125C32.4188 14.3542 30.7875 15.0167 29.25 15.9V37.6521ZM27 44.1667C25.2 42.7681 23.25 41.6823 21.15 40.9094C19.05 40.1365 16.875 39.75 14.625 39.75C13.05 39.75 11.5031 39.9524 9.98438 40.3573C8.46562 40.7622 7.0125 41.3326 5.625 42.0688C4.8375 42.4736 4.07813 42.4552 3.34688 42.0136C2.61562 41.5719 2.25 40.9278 2.25 40.0813V13.4708C2.25 13.066 2.35313 12.6795 2.55938 12.3115C2.76562 11.9434 3.075 11.6674 3.4875 11.4833C5.2125 10.6 7.0125 9.93751 8.8875 9.49584C10.7625 9.05418 12.675 8.83334 14.625 8.83334C16.8 8.83334 18.9281 9.10939 21.0094 9.66147C23.0906 10.2136 25.0875 11.0417 27 12.1458C28.9125 11.0417 30.9094 10.2136 32.9906 9.66147C35.0719 9.10939 37.2 8.83334 39.375 8.83334C41.325 8.83334 43.2375 9.05418 45.1125 9.49584C46.9875 9.93751 48.7875 10.6 50.5125 11.4833C50.925 11.6674 51.2344 11.9434 51.4406 12.3115C51.6469 12.6795 51.75 13.066 51.75 13.4708V40.0813C51.75 40.9278 51.3844 41.5719 50.6531 42.0136C49.9219 42.4552 49.1625 42.4736 48.375 42.0688C46.9875 41.3326 45.5344 40.7622 44.0156 40.3573C42.4969 39.9524 40.95 39.75 39.375 39.75C37.125 39.75 34.95 40.1365 32.85 40.9094C30.75 41.6823 28.8 42.7681 27 44.1667Z" fill="#8B5CC5"/>
</g>
</svg>
