<svg width="50" height="37" viewBox="0 0 50 37" fill="none" xmlns="http://www.w3.org/2000/svg">
<path d="M29.5 13.8625V10.1083C30.7375 9.59307 32.0031 9.20661 33.2969 8.94897C34.5906 8.69133 35.95 8.56251 37.375 8.56251C38.35 8.56251 39.3062 8.63612 40.2437 8.78334C41.1812 8.93057 42.1 9.11459 43 9.33543V12.8688C42.1 12.5375 41.1906 12.2891 40.2719 12.1234C39.3531 11.9578 38.3875 11.875 37.375 11.875C35.95 11.875 34.5812 12.0498 33.2687 12.3995C31.9563 12.7491 30.7 13.2368 29.5 13.8625ZM29.5 26.0083V22.2542C30.7375 21.7389 32.0031 21.3524 33.2969 21.0948C34.5906 20.8372 35.95 20.7083 37.375 20.7083C38.35 20.7083 39.3062 20.782 40.2437 20.9292C41.1812 21.0764 42.1 21.2604 43 21.4813V25.0146C42.1 24.6833 41.1906 24.4349 40.2719 24.2693C39.3531 24.1037 38.3875 24.0208 37.375 24.0208C35.95 24.0208 34.5812 24.1865 33.2687 24.5177C31.9563 24.849 30.7 25.3458 29.5 26.0083ZM29.5 19.9354V16.1813C30.7375 15.666 32.0031 15.2795 33.2969 15.0219C34.5906 14.7642 35.95 14.6354 37.375 14.6354C38.35 14.6354 39.3062 14.709 40.2437 14.8563C41.1812 15.0035 42.1 15.1875 43 15.4083V18.9417C42.1 18.6104 41.1906 18.362 40.2719 18.1964C39.3531 18.0307 38.3875 17.9479 37.375 17.9479C35.95 17.9479 34.5812 18.1228 33.2687 18.4724C31.9563 18.8221 30.7 19.3097 29.5 19.9354ZM12.625 27.3333C14.3875 27.3333 16.1031 27.5266 17.7719 27.913C19.4406 28.2995 21.1 28.8792 22.75 29.6521V7.90001C21.2125 7.01668 19.5813 6.35418 17.8563 5.91251C16.1313 5.47084 14.3875 5.25001 12.625 5.25001C11.275 5.25001 9.93437 5.37883 8.60313 5.63647C7.27188 5.89411 5.9875 6.28057 4.75 6.79584V28.6583C6.0625 28.2167 7.36562 27.8854 8.65938 27.6646C9.95312 27.4438 11.275 27.3333 12.625 27.3333ZM27.25 29.6521C28.9 28.8792 30.5594 28.2995 32.2281 27.913C33.8969 27.5266 35.6125 27.3333 37.375 27.3333C38.725 27.3333 40.0469 27.4438 41.3406 27.6646C42.6344 27.8854 43.9375 28.2167 45.25 28.6583V6.79584C44.0125 6.28057 42.7281 5.89411 41.3969 5.63647C40.0656 5.37883 38.725 5.25001 37.375 5.25001C35.6125 5.25001 33.8688 5.47084 32.1438 5.91251C30.4188 6.35418 28.7875 7.01668 27.25 7.90001V29.6521ZM25 36.1667C23.2 34.7681 21.25 33.6823 19.15 32.9094C17.05 32.1365 14.875 31.75 12.625 31.75C11.05 31.75 9.50313 31.9524 7.98438 32.3573C6.46562 32.7622 5.0125 33.3326 3.625 34.0688C2.8375 34.4736 2.07813 34.4552 1.34688 34.0136C0.615625 33.5719 0.25 32.9278 0.25 32.0813V5.47084C0.25 5.06598 0.353125 4.67952 0.559375 4.31147C0.765625 3.94341 1.075 3.66737 1.4875 3.48334C3.2125 2.60001 5.0125 1.93751 6.8875 1.49584C8.7625 1.05418 10.675 0.833344 12.625 0.833344C14.8 0.833344 16.9281 1.10939 19.0094 1.66147C21.0906 2.21355 23.0875 3.04168 25 4.14584C26.9125 3.04168 28.9094 2.21355 30.9906 1.66147C33.0719 1.10939 35.2 0.833344 37.375 0.833344C39.325 0.833344 41.2375 1.05418 43.1125 1.49584C44.9875 1.93751 46.7875 2.60001 48.5125 3.48334C48.925 3.66737 49.2344 3.94341 49.4406 4.31147C49.6469 4.67952 49.75 5.06598 49.75 5.47084V32.0813C49.75 32.9278 49.3844 33.5719 48.6531 34.0136C47.9219 34.4552 47.1625 34.4736 46.375 34.0688C44.9875 33.3326 43.5344 32.7622 42.0156 32.3573C40.4969 31.9524 38.95 31.75 37.375 31.75C35.125 31.75 32.95 32.1365 30.85 32.9094C28.75 33.6823 26.8 34.7681 25 36.1667Z" fill="#3CBB9D"/>
</svg>
