<svg width="20" height="20" viewBox="0 0 20 20" fill="none" xmlns="http://www.w3.org/2000/svg">
<path fill-rule="evenodd" clip-rule="evenodd" d="M6.80359 13.9347C8.19237 14.9929 9.94952 15.625 11.8605 15.625C16.3558 15.625 20 12.1272 20 7.8125C20 3.49778 16.3558 0 11.8605 0C7.36515 0 3.72097 3.49778 3.72097 7.8125C3.72097 9.77376 4.47392 11.5662 5.7175 12.9381L0 19.0357L1.11632 20L6.80359 13.9347ZM5.19146 7.8125C5.19146 11.2422 8.10933 14.1435 11.8605 14.1435C15.6116 14.1435 18.5295 11.2422 18.5295 7.8125C18.5295 4.38279 15.6116 1.48148 11.8605 1.48148C8.10933 1.48148 5.19146 4.38279 5.19146 7.8125Z" fill="white"/>
</svg>
