<svg width="20" height="20" viewBox="0 0 20 20" fill="none" xmlns="http://www.w3.org/2000/svg">
<path fill-rule="evenodd" clip-rule="evenodd" d="M13.1964 13.9347C11.8076 14.9929 10.0505 15.625 8.13952 15.625C3.64419 15.625 0 12.1272 0 7.8125C0 3.49778 3.64419 0 8.13952 0C12.6348 0 16.279 3.49778 16.279 7.8125C16.279 9.77376 15.5261 11.5662 14.2825 12.9381L20 19.0357L18.8837 20L13.1964 13.9347ZM14.8085 7.8125C14.8085 11.2422 11.8907 14.1435 8.13952 14.1435C4.38837 14.1435 1.47049 11.2422 1.47049 7.8125C1.47049 4.38279 4.38837 1.48148 8.13952 1.48148C11.8907 1.48148 14.8085 4.38279 14.8085 7.8125Z" fill="white"/>
</svg>
